<svg width="23" height="24" viewBox="0 0 23 24" fill="none" xmlns="http://www.w3.org/2000/svg">
<path fill-rule="evenodd" clip-rule="evenodd" d="M7.81892 14.2856C8.29921 14.2856 8.75152 14.3845 9.14694 14.5831C9.44351 12.6284 11.1399 11.1269 13.1739 11.1269C15.3926 11.1269 17.2009 12.9119 17.2578 15.1212C18.5858 15.291 19.6173 16.4241 19.6173 17.8267C19.6173 19.3282 18.4021 20.5462 16.9043 20.5462H7.81892C6.09547 20.5462 4.69656 19.1435 4.69656 17.4164C4.69656 15.6873 6.09547 14.2856 7.81892 14.2856Z" stroke="#1B1B1B" stroke-width="1.67868" stroke-linecap="round" stroke-linejoin="round"/>
<path d="M10.2213 3.4796V2.73352" stroke="#1B1B1B" stroke-width="1.67868" stroke-linecap="round" stroke-linejoin="round"/>
<path d="M14.9776 5.44736L15.4998 4.91578" stroke="#1B1B1B" stroke-width="1.67868" stroke-linecap="round" stroke-linejoin="round"/>
<path d="M2.7605 10.1943H3.50658" stroke="#1B1B1B" stroke-width="1.67868" stroke-linecap="round" stroke-linejoin="round"/>
<path d="M4.95209 4.91578L5.47435 5.44736" stroke="#1B1B1B" stroke-width="1.67868" stroke-linecap="round" stroke-linejoin="round"/>
<path d="M12.8634 7.55688C12.1882 6.88167 11.2556 6.46387 10.225 6.46387C8.16492 6.46387 6.49463 8.13416 6.49463 10.1943" stroke="#1B1B1B" stroke-width="1.67868" stroke-linecap="round" stroke-linejoin="round"/>
</svg>
