<svg width="300" height="300" viewBox="0 0 300 300" fill="none" xmlns="http://www.w3.org/2000/svg">
<circle cx="150" cy="150" r="146" fill="#054B54" stroke="#E1DCD3" stroke-width="8"/>
<path d="M250.888 144.704C250.938 145.764 250.971 146.827 250.988 147.895L249.149 147.924C249.157 148.448 249.161 148.974 249.161 149.5C249.161 150.026 249.157 150.552 249.149 151.076L250.988 151.105C250.971 152.173 250.938 153.236 250.888 154.296L249.051 154.21C249.002 155.26 248.937 156.306 248.855 157.348L250.689 157.491C250.605 158.556 250.505 159.615 250.389 160.67L248.561 160.469C248.446 161.513 248.316 162.551 248.169 163.584L249.989 163.843C249.839 164.901 249.672 165.954 249.489 167.002L247.678 166.685C247.497 167.717 247.301 168.743 247.089 169.764L248.89 170.138C248.673 171.184 248.439 172.225 248.19 173.26L246.402 172.829C246.156 173.848 245.895 174.861 245.618 175.867L247.392 176.355C247.109 177.384 246.81 178.406 246.496 179.421L244.739 178.877C244.429 179.879 244.103 180.874 243.762 181.862L245.501 182.462C245.153 183.471 244.79 184.472 244.411 185.466L242.692 184.812C242.32 185.79 241.932 186.762 241.529 187.726L243.226 188.435C242.815 189.419 242.388 190.396 241.947 191.365L240.273 190.603C239.839 191.556 239.39 192.5 238.927 193.437L240.576 194.252C240.103 195.208 239.616 196.156 239.114 197.095L237.492 196.228C236.998 197.152 236.49 198.067 235.968 198.973L237.562 199.891C237.03 200.815 236.484 201.729 235.924 202.635L234.36 201.667C233.809 202.558 233.244 203.439 232.666 204.31L234.199 205.327C233.61 206.215 233.007 207.094 232.391 207.963L230.891 206.899C230.285 207.753 229.667 208.597 229.035 209.43L230.501 210.541C229.857 211.391 229.2 212.23 228.531 213.059L227.1 211.903C226.442 212.717 225.772 213.52 225.089 214.313L226.483 215.513C225.787 216.321 225.079 217.117 224.359 217.903L223.004 216.659C222.296 217.431 221.577 218.191 220.846 218.94L222.162 220.224C221.417 220.987 220.661 221.738 219.893 222.477L218.618 221.151C217.864 221.877 217.098 222.591 216.322 223.293L217.555 224.657C216.765 225.371 215.963 226.073 215.15 226.763L213.96 225.361C213.163 226.038 212.354 226.702 211.535 227.354L212.681 228.793C211.848 229.457 211.004 230.108 210.149 230.746L209.049 229.272C208.211 229.897 207.363 230.51 206.505 231.11L207.558 232.617C206.686 233.227 205.803 233.824 204.91 234.407L203.904 232.868C203.028 233.44 202.143 233.999 201.249 234.544L202.206 236.114C201.297 236.668 200.379 237.208 199.452 237.735L198.544 236.135C197.635 236.651 196.716 237.153 195.79 237.641L196.647 239.269C195.705 239.765 194.754 240.247 193.795 240.714L192.989 239.061C192.05 239.518 191.102 239.961 190.147 240.39L190.9 242.068C189.929 242.504 188.95 242.925 187.963 243.332L187.263 241.631C186.297 242.029 185.323 242.412 184.342 242.78L184.988 244.502C183.992 244.876 182.989 245.234 181.979 245.577L181.387 243.836C180.398 244.172 179.401 244.494 178.398 244.8L178.934 246.559C177.918 246.869 176.894 247.164 175.864 247.443L175.383 245.668C174.376 245.941 173.362 246.198 172.342 246.441L172.767 248.23C171.731 248.476 170.689 248.706 169.641 248.921L169.273 247.119C168.252 247.328 167.225 247.521 166.192 247.699L166.504 249.511C165.456 249.691 164.403 249.856 163.345 250.004L163.09 248.183C162.056 248.328 161.017 248.457 159.973 248.57L160.171 250.398C159.116 250.513 158.056 250.611 156.991 250.693L156.85 248.859C155.808 248.94 154.762 249.004 153.712 249.053L153.796 250.89C152.737 250.939 151.673 250.971 150.605 250.988L150.577 249.149C150.052 249.157 149.526 249.161 149 249.161C148.473 249.161 147.948 249.157 147.423 249.149L147.395 250.988C146.327 250.971 145.263 250.939 144.204 250.89L144.288 249.053C143.238 249.004 142.192 248.94 141.15 248.859L141.009 250.693C139.944 250.611 138.884 250.513 137.829 250.398L138.027 248.57C136.983 248.457 135.944 248.328 134.91 248.183L134.655 250.004C133.597 249.856 132.544 249.691 131.496 249.511L131.808 247.699C130.775 247.521 129.748 247.328 128.727 247.119L128.359 248.921C127.311 248.706 126.269 248.476 125.233 248.23L125.658 246.441C124.638 246.198 123.624 245.941 122.617 245.668L122.136 247.443C121.106 247.164 120.082 246.869 119.066 246.559L119.602 244.8C118.599 244.494 117.602 244.172 116.613 243.836L116.021 245.577C115.011 245.234 114.008 244.876 113.012 244.502L113.658 242.78C112.677 242.412 111.703 242.029 110.737 241.631L110.037 243.332C109.05 242.925 108.071 242.504 107.1 242.068L107.853 240.39C106.897 239.961 105.95 239.518 105.011 239.061L104.205 240.714C103.246 240.247 102.295 239.765 101.353 239.269L102.21 237.641C101.284 237.153 100.365 236.651 99.4559 236.135L98.5483 237.734C97.621 237.208 96.7028 236.668 95.794 236.114L96.7513 234.544C95.8569 233.999 94.9717 233.44 94.0961 232.868L93.0901 234.407C92.1974 233.824 91.3145 233.227 90.4416 232.617L91.4952 231.11C90.6372 230.51 89.789 229.897 88.9511 229.272L87.8509 230.745C86.9964 230.108 86.1523 229.457 85.3188 228.793L86.4645 227.354C85.6455 226.702 84.8371 226.038 84.0395 225.361L82.8495 226.763C82.0369 226.073 81.2353 225.371 80.445 224.657L81.6781 223.293C80.9015 222.591 80.136 221.877 79.3819 221.151L78.1068 222.477C77.3388 221.738 76.5825 220.987 75.8381 220.224L77.154 218.94C76.4229 218.191 75.7035 217.431 74.9961 216.659L73.6407 217.903C72.9205 217.117 72.2126 216.321 71.5171 215.513L72.9107 214.313C72.228 213.52 71.5575 212.717 70.8997 211.903L69.4692 213.059C68.7996 212.23 68.1427 211.391 67.499 210.541L68.9649 209.43C68.3334 208.597 67.7147 207.753 67.1092 206.899L65.6091 207.963C64.9929 207.094 64.39 206.215 63.8008 205.327L65.3336 204.31C64.7556 203.439 64.1911 202.558 63.6402 201.667L62.0762 202.635C61.5161 201.729 60.9699 200.814 60.4378 199.891L62.0316 198.973C61.5098 198.067 61.002 197.152 60.5083 196.228L58.8863 197.095C58.3844 196.156 57.897 195.208 57.4241 194.252L59.0728 193.437C58.6097 192.5 58.161 191.556 57.7269 190.603L56.0533 191.365C55.6119 190.396 55.1853 189.419 54.7738 188.434L56.4708 187.726C56.0682 186.762 55.6803 185.79 55.3075 184.812L53.5888 185.466C53.2102 184.472 52.8469 183.471 52.499 182.462L54.2376 181.862C53.8969 180.874 53.5713 179.879 53.2612 178.877L51.5043 179.421C51.19 178.406 50.8912 177.384 50.6083 176.355L52.3816 175.867C52.1049 174.861 51.8435 173.848 51.5979 172.829L49.81 173.26C49.5606 172.225 49.3271 171.184 49.1098 170.138L50.9106 169.764C50.6987 168.743 50.5026 167.717 50.3224 166.685L48.5107 167.002C48.3277 165.954 48.1609 164.901 48.0105 163.843L49.8314 163.584C49.6845 162.551 49.5535 161.513 49.4388 160.469L47.6107 160.67C47.4946 159.615 47.3948 158.555 47.3115 157.491L49.145 157.347C49.0635 156.306 48.9981 155.26 48.949 154.21L47.1119 154.296C47.0623 153.236 47.0291 152.173 47.0125 151.105L48.8514 151.076C48.8432 150.552 48.8391 150.026 48.8391 149.5C48.8391 148.974 48.8432 148.448 48.8514 147.924L47.0125 147.895C47.0291 146.827 47.0623 145.764 47.1119 144.704L48.949 144.79C48.9981 143.74 49.0635 142.694 49.145 141.652L47.3115 141.509C47.3948 140.444 47.4946 139.385 47.6107 138.33L49.4388 138.531C49.5535 137.487 49.6845 136.449 49.8314 135.416L48.0105 135.157C48.1609 134.099 48.3277 133.046 48.5107 131.998L50.3224 132.315C50.5026 131.283 50.6988 130.257 50.9106 129.236L49.1098 128.862C49.3271 127.816 49.5606 126.775 49.81 125.74L51.5979 126.171C51.8435 125.152 52.1049 124.139 52.3817 123.133L50.6084 122.645C50.8913 121.616 51.19 120.594 51.5043 119.579L53.2612 120.123C53.5713 119.121 53.8969 118.126 54.2377 117.138L52.499 116.538C52.8469 115.529 53.2102 114.528 53.5889 113.534L55.3075 114.188C55.6803 113.21 56.0682 112.238 56.4708 111.274L54.7738 110.565C55.1853 109.581 55.6119 108.604 56.0533 107.635L57.7269 108.397C58.161 107.444 58.6097 106.5 59.0728 105.563L57.4242 104.748C57.897 103.792 58.3845 102.844 58.8863 101.905L60.5083 102.772C61.002 101.848 61.5099 100.933 62.0316 100.027L60.4379 99.1094C60.9699 98.1855 61.5161 97.2707 62.0762 96.3653L63.6402 97.3329C64.1911 96.4424 64.7557 95.5612 65.3336 94.6895L63.8008 93.6732C64.39 92.7846 64.9929 91.9057 65.6092 91.0369L67.1093 92.1009C67.7148 91.2472 68.3334 90.4034 68.965 89.5698L67.499 88.4592C68.1427 87.6094 68.7996 86.7701 69.4693 85.9414L70.8997 87.0973C71.5576 86.2832 72.228 85.4797 72.9107 84.6869L71.5172 83.4867C72.2126 82.6792 72.9206 81.8827 73.6408 81.0974L74.9961 82.3406C75.7035 81.5693 76.4229 80.8091 77.154 80.0604L75.8381 78.7755C76.5825 78.0131 77.3389 77.2623 78.1068 76.5234L79.382 77.8487C80.136 77.1232 80.9015 76.4093 81.6782 75.7075L80.445 74.343C81.2353 73.6287 82.0369 72.9267 82.8496 72.237L84.0395 73.6393C84.8372 72.9624 85.6456 72.2978 86.4645 71.6457L85.3189 70.207C86.1523 69.5433 86.9965 68.8924 87.851 68.2545L88.9511 69.7283C89.7891 69.1028 90.6372 68.49 91.4952 67.8904L90.4416 66.3829C91.3145 65.7728 92.1975 65.176 93.0902 64.5927L94.0961 66.1324C94.9717 65.5603 95.8569 65.0015 96.7513 64.4562L95.7941 62.8859C96.7029 62.3319 97.6211 61.7917 98.5484 61.2655L99.456 62.8651C100.365 62.3491 101.284 61.8469 102.21 61.3587L101.353 59.7315C102.295 59.2353 103.246 58.7534 104.205 58.2861L105.011 59.9395C105.95 59.4819 106.898 59.0385 107.853 58.6097L107.1 56.9318C108.071 56.4959 109.05 56.0746 110.037 55.6682L110.737 57.3689C111.703 56.9712 112.677 56.5882 113.658 56.22L113.012 54.4981C114.008 54.1245 115.011 53.7658 116.021 53.4226L116.613 55.1639C117.602 54.8276 118.599 54.5063 119.602 54.2003L119.066 52.4411C120.082 52.131 121.106 51.8363 122.136 51.5572L122.617 53.3323C123.624 53.0593 124.638 52.8015 125.658 52.5593L125.233 50.7699C126.269 50.5239 127.311 50.2937 128.359 50.0794L128.727 51.8813C129.748 51.6724 130.775 51.479 131.808 51.3013L131.496 49.4888C132.544 49.3085 133.597 49.1441 134.655 48.9959L134.91 50.8172C135.944 50.6724 136.983 50.5433 138.027 50.4302L137.829 48.6017C138.884 48.4874 139.944 48.389 141.009 48.3069L141.15 50.1406C142.192 50.0603 143.238 49.9958 144.288 49.9474L144.204 48.1102C145.263 48.0614 146.327 48.0287 147.395 48.0123L147.423 49.8512C147.948 49.8432 148.474 49.8391 149 49.8391C149.527 49.8391 150.052 49.8432 150.577 49.8512L150.605 48.0123C151.673 48.0287 152.737 48.0614 153.796 48.1102L153.712 49.9474C154.762 49.9958 155.808 50.0603 156.85 50.1406L156.991 48.3069C158.056 48.389 159.116 48.4874 160.171 48.6017L159.973 50.4302C161.017 50.5433 162.056 50.6724 163.09 50.8172L163.345 48.9959C164.403 49.1441 165.456 49.3085 166.504 49.4888L166.192 51.3013C167.225 51.479 168.252 51.6724 169.273 51.8813L169.641 50.0794C170.689 50.2937 171.731 50.524 172.767 50.7699L172.342 52.5593C173.362 52.8015 174.376 53.0593 175.383 53.3323L175.864 51.5572C176.894 51.8363 177.918 52.131 178.934 52.4411L178.398 54.2003C179.401 54.5063 180.398 54.8276 181.387 55.1639L181.979 53.4226C182.989 53.7659 183.992 54.1245 184.988 54.4981L184.342 56.22C185.323 56.5882 186.297 56.9713 187.263 57.3689L187.963 55.6683C188.95 56.0746 189.929 56.4959 190.9 56.9319L190.147 58.6097C191.103 59.0386 192.05 59.4819 192.989 59.9395L193.795 58.2861C194.754 58.7535 195.705 59.2354 196.647 59.7315L195.79 61.3587C196.716 61.8469 197.635 62.3491 198.544 62.8651L199.452 61.2655C200.379 61.7917 201.297 62.3319 202.206 62.8859L201.249 64.4563C202.143 65.0015 203.028 65.5603 203.904 66.1324L204.91 64.5928C205.803 65.176 206.686 65.7729 207.558 66.383L206.505 67.8904C207.363 68.4901 208.211 69.1028 209.049 69.7283L210.149 68.2545C211.004 68.8924 211.848 69.5433 212.681 70.207L211.536 71.6457C212.354 72.2978 213.163 72.9625 213.96 73.6393L215.15 72.2371C215.963 72.9267 216.765 73.6288 217.555 74.343L216.322 75.7075C217.099 76.4094 217.864 77.1232 218.618 77.8488L219.893 76.5235C220.661 77.2624 221.417 78.0132 222.162 78.7755L220.846 80.0604C221.577 80.8092 222.297 81.5693 223.004 82.3406L224.359 81.0975C225.079 81.8827 225.787 82.6792 226.483 83.4868L225.089 84.6869C225.772 85.4797 226.442 86.2833 227.1 87.0973L228.531 85.9414C229.2 86.7701 229.857 87.6095 230.501 88.4593L229.035 89.5698C229.667 90.4034 230.285 91.2473 230.891 92.101L232.391 91.0369C233.007 91.9058 233.61 92.7846 234.199 93.6733L232.666 94.6896C233.244 95.5612 233.809 96.4425 234.36 97.3329L235.924 96.3654C236.484 97.2707 237.03 98.1855 237.562 99.1094L235.968 100.027C236.49 100.933 236.998 101.848 237.492 102.772L239.114 101.905C239.616 102.844 240.103 103.792 240.576 104.748L238.927 105.563C239.39 106.5 239.839 107.444 240.273 108.397L241.947 107.635C242.388 108.604 242.815 109.581 243.226 110.566L241.529 111.274C241.932 112.238 242.32 113.21 242.692 114.188L244.411 113.534C244.79 114.528 245.153 115.529 245.501 116.538L243.762 117.138C244.103 118.126 244.429 119.121 244.739 120.123L246.496 119.579C246.81 120.594 247.109 121.616 247.392 122.645L245.618 123.133C245.895 124.139 246.156 125.152 246.402 126.171L248.19 125.74C248.439 126.775 248.673 127.816 248.89 128.862L247.089 129.236C247.301 130.257 247.497 131.283 247.678 132.315L249.489 131.998C249.672 133.046 249.839 134.099 249.989 135.157L248.169 135.416C248.316 136.449 248.446 137.487 248.561 138.531L250.389 138.33C250.505 139.385 250.605 140.445 250.689 141.509L248.855 141.653C248.937 142.694 249.002 143.74 249.051 144.79L250.888 144.704Z" stroke="#E8D7AA" stroke-width="3.67827" stroke-linejoin="round" stroke-dasharray="3.26 3.26"/>
<path d="M148.177 196.692C131.277 171.342 100.696 157.055 79.3701 152.628V140.557C121.62 158.664 138.52 168.464 148.177 178.122C162.663 164.843 198.47 151.421 222.613 140.557V155.323C192.435 163.773 158.857 179.627 148.177 196.692Z" fill="url(#paint0_linear_152_1117)" fill-opacity="0.25"/>
<path d="M65 163.406V151.335C116.183 160.026 141.855 185.537 148.293 197.206C158.916 176.926 209.857 160.421 234 153.58V163.406C203.097 163.406 163.986 193.733 148.293 209.426C132.841 182.386 86.3262 167.833 65 163.406Z" fill="url(#paint1_linear_152_1117)" fill-opacity="0.25"/>
<path d="M141.575 90.4484L140.6 90.7095C136.334 91.8527 132.335 93.825 128.83 96.5138C125.326 99.2026 122.386 102.555 120.178 106.38C115.718 114.106 114.509 123.286 116.818 131.902C119.126 140.519 124.763 147.865 132.488 152.325C136.314 154.534 140.536 155.967 144.915 156.543C149.294 157.12 153.744 156.828 158.01 155.685C167.757 153.074 172.409 148.345 176.951 141.905C160.389 151.566 140.663 142.923 136.31 126.679C131.958 110.435 144.72 93.0878 163.894 93.1732C160.547 91.245 156.846 90.0101 153.011 89.5419C149.177 89.0738 145.288 89.3821 141.575 90.4484ZM159.851 100.176L158.024 112.852L146.265 117.048L157.863 122.645L157.985 134.8L166.641 125.516L178.778 129.228L172.482 118.728L180.052 107.995L167.771 110.241L159.851 100.176Z" fill="url(#paint2_linear_152_1117)" fill-opacity="0.25"/>
<defs>
<linearGradient id="paint0_linear_152_1117" x1="96.2701" y1="157.457" x2="218.192" y2="141.764" gradientUnits="userSpaceOnUse">
<stop stop-color="#9A8F7C" stop-opacity="0.83"/>
<stop offset="1" stop-color="#B6996D" stop-opacity="0.99"/>
</linearGradient>
<linearGradient id="paint1_linear_152_1117" x1="75.8643" y1="163.406" x2="229.171" y2="167.028" gradientUnits="userSpaceOnUse">
<stop stop-color="#054B54"/>
<stop offset="1" stop-color="#1D7985" stop-opacity="0.56"/>
</linearGradient>
<linearGradient id="paint2_linear_152_1117" x1="96.0178" y1="91.0008" x2="217.797" y2="138.531" gradientUnits="userSpaceOnUse">
<stop stop-color="#435456"/>
<stop offset="1" stop-color="#207884" stop-opacity="0.71"/>
</linearGradient>
</defs>
</svg>
