<?xml version="1.0" encoding="UTF-8"?>
<!-- Generator: visioncortex VTracer 0.6.3 -->
<svg version="1.1" xmlns="http://www.w3.org/2000/svg" width="908" height="1280">
<path d="M0 0 C0.68 0.1 1.36 0.2 2.06 0.3 C24.87 3.65 47.91 7.72 69.76 15.23 C72.23 16.08 74.72 16.87 77.21 17.66 C92.54 22.56 107.31 28.43 122 35 C123.39 35.62 123.39 35.62 124.82 36.26 C173.23 58.1 215.87 89.91 253.38 127.25 C254.12 127.99 254.87 128.74 255.65 129.51 C260.3 134.18 264.71 139 269 144 C269.93 145.05 270.85 146.1 271.78 147.14 C324.67 207.33 357.01 283.11 366.56 362.41 C366.86 364.87 367.19 367.32 367.54 369.77 C369.31 382.49 369.4 395.17 369.38 408 C369.37 409.14 369.37 410.29 369.37 411.47 C369.34 430.63 368.18 449.1 365 468 C364.81 469.17 364.63 470.33 364.43 471.53 C358.31 509.27 347.37 545.46 331 580 C330.57 580.9 330.15 581.8 329.71 582.73 C317.09 609.16 300.87 633.29 283.57 656.86 C280.89 660.52 278.22 664.2 275.56 667.88 C275.03 668.61 274.49 669.35 273.94 670.11 C269.31 676.54 264.77 683.03 260.24 689.53 C256.32 695.14 252.34 700.71 248.31 706.25 C243.81 712.45 239.41 718.71 235.09 725.03 C230.31 732.03 225.41 738.95 220.51 745.87 C211.9 758.03 203.33 770.22 194.8 782.43 C192.99 785.01 191.19 787.58 189.39 790.15 C183.66 798.32 177.95 806.5 172.31 814.73 C168.32 820.55 164.29 826.34 160.25 832.12 C153.06 842.44 145.96 852.81 138.89 863.22 C137.03 865.95 135.17 868.69 133.3 871.43 C105.02 912.83 105.02 912.83 77.47 954.71 C76.02 956.97 74.56 959.23 73.09 961.48 C70.38 965.64 67.69 969.82 65 974 C64.55 974.7 64.09 975.41 63.62 976.13 C57.14 986.22 50.88 996.44 44.75 1006.75 C44.1 1007.84 43.45 1008.93 42.78 1010.05 C35.07 1023.08 28.15 1036.3 22.12 1050.19 C21.83 1050.87 21.53 1051.56 21.22 1052.26 C15.13 1066.28 9.84 1080.51 5 1095 C4.4 1096.8 4.4 1096.8 3.78 1098.63 C-1.87 1115.62 -7.09 1132.73 -12.07 1149.93 C-14.26 1157.44 -16.58 1164.89 -19.17 1172.28 C-19.41 1172.98 -19.66 1173.68 -19.91 1174.4 C-23.57 1184.66 -28.38 1193.35 -38 1199 C-44.9 1201.3 -55.04 1201.27 -61.88 1198.56 C-75.48 1191.18 -83.28 1178.26 -87.65 1163.85 C-88.98 1159.23 -90.23 1154.59 -91.47 1149.94 C-93.52 1142.42 -96.41 1135.2 -99.25 1127.94 C-100.08 1125.8 -100.89 1123.66 -101.7 1121.52 C-102.3 1119.95 -102.9 1118.38 -103.5 1116.81 C-103.77 1116.09 -104.04 1115.37 -104.33 1114.62 C-106.19 1109.77 -108.37 1105.16 -110.73 1100.53 C-112.36 1097.27 -113.85 1093.95 -115.33 1090.62 C-126.9 1064.78 -139.66 1039.28 -153.54 1014.6 C-155.16 1011.71 -156.77 1008.81 -158.38 1005.9 C-165.53 993.01 -172.88 980.26 -180.44 967.61 C-181.96 965.06 -183.48 962.51 -184.99 959.96 C-207.86 921.43 -233.42 884.49 -259.07 847.77 C-260.93 845.09 -262.8 842.42 -264.66 839.74 C-270.78 830.96 -276.96 822.24 -283.25 813.58 C-286.87 808.58 -290.45 803.55 -294 798.5 C-303.09 785.58 -312.38 772.81 -321.77 760.11 C-325.71 754.76 -329.62 749.39 -333.5 744 C-343.58 730.01 -353.84 716.17 -364.32 702.49 C-368.37 697.18 -372.31 691.83 -376.14 686.37 C-379.88 681.09 -383.81 675.95 -387.75 670.81 C-407.82 644.57 -426.18 618.02 -442 589 C-442.4 588.27 -442.8 587.55 -443.2 586.8 C-448.7 576.75 -453.62 566.58 -458 556 C-458.27 555.34 -458.55 554.68 -458.83 554.01 C-461.69 547.15 -464.34 540.3 -466.35 533.14 C-466.97 531.09 -467.74 529.2 -468.62 527.25 C-469.97 524.07 -470.45 521.39 -471 518 C-471.67 516.3 -471.67 516.3 -472.35 514.57 C-474.42 509.13 -475.68 503.55 -476.94 497.88 C-477.33 496.13 -477.33 496.13 -477.72 494.35 C-482.34 472.77 -485.08 450.59 -485.24 428.52 C-485.25 427.36 -485.26 426.2 -485.27 425.01 C-485.44 400.05 -485.43 375.62 -481 351 C-480.79 349.78 -480.57 348.56 -480.35 347.31 C-470.28 291.55 -449.59 236.81 -419 189 C-418.63 188.42 -418.26 187.83 -417.87 187.23 C-415.65 183.77 -413.35 180.38 -411 177 C-410.26 175.92 -409.51 174.84 -408.75 173.73 C-399.85 160.95 -390.03 148.96 -379.4 137.59 C-377.44 135.47 -375.55 133.33 -373.69 131.12 C-365.86 122.1 -357.13 113.69 -348 106 C-347.01 105.13 -346.02 104.27 -345 103.38 C-323.4 84.48 -299.97 68.14 -275 54 C-274.1 53.49 -273.2 52.97 -272.27 52.45 C-241.25 34.84 -208.31 21.68 -174 12 C-172.57 11.59 -172.57 11.59 -171.1 11.18 C-152.69 6.04 -133.9 2.78 -115 0 C-113.15 -0.27 -113.15 -0.27 -111.26 -0.55 C-75.06 -5.59 -36.15 -5.32 0 0 Z M-84 -2 C-84 -1.67 -84 -1.34 -84 -1 C-82.02 -1 -80.04 -1 -78 -1 C-78 -1.33 -78 -1.66 -78 -2 C-79.98 -2 -81.96 -2 -84 -2 Z M-37 -2 C-37 -1.67 -37 -1.34 -37 -1 C-35.02 -1 -33.04 -1 -31 -1 C-31 -1.33 -31 -1.66 -31 -2 C-32.98 -2 -34.96 -2 -37 -2 Z M-158 287 C-158.58 287.47 -159.17 287.93 -159.77 288.41 C-194.67 316.58 -215.21 357.11 -220.4 401.4 C-220.67 404.27 -220.87 407.12 -221 410 C-221.04 410.82 -221.08 411.63 -221.12 412.47 C-222.21 456.33 -203.64 496.75 -175 529 C-174.42 529.65 -173.84 530.31 -173.24 530.98 C-156.4 548.79 -130.84 564.27 -107 570 C-106.01 570 -105.02 570 -104 570 C-103.67 570.66 -103.34 571.32 -103 572 C-100.56 572.63 -100.56 572.63 -97.62 573 C-93.54 573.61 -89.49 574.27 -85.44 575.06 C-46.08 582.23 -3.14 573.86 30.38 552 C39.5 545.67 47.88 538.56 56 531 C56.72 530.35 57.43 529.7 58.17 529.03 C83.46 505.07 98.66 471.28 103 437 C103.11 436.2 103.22 435.39 103.34 434.57 C105.6 414.92 103.78 395.3 99.59 376.07 C99 373 99 373 99 369 C98.34 369 97.68 369 97 369 C96.9 368.46 96.79 367.91 96.69 367.35 C95.51 361.58 93.76 356.34 91.44 350.94 C91.09 350.12 90.74 349.3 90.38 348.46 C72.97 308.58 41.16 279.26 1 263 C-52.22 243.13 -113.24 251.21 -158 287 Z M-198 328 C-198 331 -198 331 -198 331 Z M-200 331 C-200 334 -200 334 -200 334 Z M-480 351 C-479 353 -479 353 -479 353 Z M-482 365 C-481 367 -481 367 -481 367 Z M-483 373 C-482 376 -482 376 -482 376 Z M-484 384 C-483 388 -483 388 -483 388 Z M102 386 C103 388 103 388 103 388 Z M103 392 C104 394 104 394 104 394 Z M104 401 C105 405 105 405 105 405 Z M104 426 C105 430 105 430 105 430 Z M-484 436 C-484 437.65 -484 439.3 -484 441 C-483.67 441 -483.34 441 -483 441 C-483 439.35 -483 437.7 -483 436 C-483.33 436 -483.66 436 -484 436 Z M103 437 C104 439 104 439 104 439 Z M-483 450 C-482 453 -482 453 -482 453 Z M-482 460 C-481 462 -481 462 -481 462 Z M-481 468 C-480 470 -480 470 -480 470 Z M-480 475 C-479 477 -479 477 -479 477 Z M-73 577 C-69 578 -69 578 -69 578 Z M-46 577 C-42 578 -42 578 -42 578 Z " fill="#32A754" transform="translate(539,35)"/>
<path d="M0 0 C5.54 2.98 10.34 6.45 15.25 10.38 C21.53 15.32 27.86 20.16 34.31 24.88 C41.1 29.84 47.82 34.89 54.5 40 C61.12 45.07 67.78 50.07 74.5 55 C82.13 60.59 89.66 66.29 97.16 72.04 C102.9 76.42 108.68 80.74 114.5 85 C122.13 90.59 129.66 96.29 137.16 102.04 C142.9 106.42 148.68 110.74 154.5 115 C162.12 120.58 169.64 126.27 177.13 132.01 C183.97 137.25 190.89 142.36 197.87 147.4 C201.92 150.34 205.73 153.2 209 157 C209 161.22 206.62 163.37 204.12 166.56 C184.03 193.15 172.54 225.74 171 259 C170.96 259.82 170.92 260.63 170.88 261.47 C169.96 298.34 183.15 336.2 206 365 C206.64 365.82 206.64 365.82 207.3 366.65 C230.67 396.22 263.87 414.5 300.56 422 C301.41 422.18 302.25 422.36 303.12 422.54 C338.29 429.7 377.07 424.09 408.64 407.1 C411 406 411 406 414 406 C412.98 409.06 411.91 410.19 409.64 412.37 C403.48 418.49 397.97 425.21 392.51 431.96 C389.6 435.48 386.62 438.93 383.62 442.38 C378.14 448.67 372.73 455.02 367.35 461.4 C365.97 463.04 364.58 464.68 363.19 466.31 C358.95 471.3 354.74 476.29 350.62 481.38 C346.5 486.44 342.23 491.38 337.94 496.31 C333.02 501.96 328.18 507.67 323.35 513.4 C321.97 515.04 320.58 516.68 319.19 518.31 C314.95 523.3 310.74 528.29 306.62 533.38 C302.46 538.5 298.14 543.48 293.8 548.45 C290.64 552.09 287.53 555.76 284.5 559.5 C280.38 564.59 276.1 569.52 271.8 574.45 C268.64 578.09 265.53 581.76 262.5 585.5 C258.42 590.53 254.19 595.42 249.94 600.31 C245.02 605.96 240.18 611.67 235.35 617.4 C233.97 619.04 232.58 620.68 231.19 622.31 C226.95 627.3 222.74 632.29 218.62 637.38 C214.5 642.44 210.23 647.38 205.94 652.31 C201.02 657.96 196.18 663.67 191.35 669.4 C189.97 671.04 188.58 672.68 187.19 674.31 C182.95 679.3 178.74 684.29 174.62 689.38 C169.88 695.2 164.97 700.86 160.03 706.52 C158.24 708.57 156.47 710.64 154.72 712.73 C154.11 713.46 153.5 714.19 152.88 714.94 C152.13 715.85 152.13 715.85 151.37 716.78 C150 718 150 718 147 718 C145.23 715.98 145.23 715.98 143.3 713.2 C142.59 712.19 141.89 711.18 141.16 710.14 C140.45 709.1 139.73 708.07 139 707 C138.35 706.08 137.71 705.16 137.04 704.21 C135.1 701.44 133.18 698.66 131.25 695.88 C121.33 681.58 111.29 667.37 101.09 653.27 C98.38 649.52 95.68 645.77 93 642 C87.59 634.41 82.13 626.86 76.67 619.31 C75.03 617.05 73.4 614.78 71.77 612.52 C64.5 602.42 57.15 592.39 49.76 582.39 C48.02 580.02 46.27 577.65 44.53 575.28 C37.94 566.32 31.3 557.39 24.62 548.5 C20.27 542.71 15.97 536.9 11.69 531.06 C7.85 525.83 3.98 520.63 0 515.5 C-19.09 490.82 -36.07 465.38 -51 438 C-51.4 437.27 -51.8 436.55 -52.2 435.8 C-57.7 425.75 -62.62 415.58 -67 405 C-67.27 404.34 -67.55 403.68 -67.83 403.01 C-70.69 396.15 -73.34 389.3 -75.35 382.14 C-75.97 380.09 -76.74 378.2 -77.62 376.25 C-78.97 373.07 -79.45 370.39 -80 367 C-80.44 365.87 -80.89 364.73 -81.35 363.57 C-83.42 358.13 -84.68 352.55 -85.94 346.88 C-86.33 345.13 -86.33 345.13 -86.72 343.35 C-91.34 321.77 -94.08 299.59 -94.24 277.52 C-94.25 276.36 -94.26 275.2 -94.27 274.01 C-94.44 249.05 -94.43 224.62 -90 200 C-89.68 198.17 -89.68 198.17 -89.35 196.31 C-79.28 140.55 -58.59 85.81 -28 38 C-27.63 37.42 -27.26 36.83 -26.87 36.23 C-24.65 32.77 -22.35 29.37 -20 26 C-19.62 25.45 -19.23 24.89 -18.84 24.32 C-6.32 6.32 -6.32 6.32 0 0 Z M193 177 C193 180 193 180 193 180 Z M191 180 C191 183 191 183 191 183 Z M-89 200 C-88 202 -88 202 -88 202 Z M-91 214 C-90 216 -90 216 -90 216 Z M-92 222 C-91 225 -91 225 -91 225 Z M-93 233 C-92 237 -92 237 -92 237 Z M-93 285 C-93 286.65 -93 288.3 -93 290 C-92.67 290 -92.34 290 -92 290 C-92 288.35 -92 286.7 -92 285 C-92.33 285 -92.66 285 -93 285 Z M-92 299 C-91 302 -91 302 -91 302 Z M-91 309 C-90 311 -90 311 -90 311 Z M-90 317 C-89 319 -89 319 -89 319 Z M-89 324 C-88 326 -88 326 -88 326 Z M318 426 C322 427 322 427 322 427 Z M345 426 C349 427 349 427 349 427 Z " fill="#F9BA08" transform="translate(148,186)"/>
<path d="M0 0 C0.68 0.1 1.36 0.2 2.06 0.3 C24.87 3.65 47.91 7.72 69.76 15.23 C72.23 16.08 74.72 16.87 77.21 17.66 C92.54 22.56 107.31 28.43 122 35 C123.39 35.62 123.39 35.62 124.82 36.26 C173.23 58.1 215.87 89.91 253.38 127.25 C254.12 127.99 254.87 128.74 255.65 129.51 C260.3 134.18 264.71 139 269 144 C269.93 145.05 270.85 146.1 271.78 147.14 C283.89 160.92 294.89 175.67 304.78 191.11 C306.13 193.2 307.5 195.27 308.87 197.34 C309.81 198.79 310.75 200.24 311.69 201.69 C312.36 202.7 312.36 202.7 313.04 203.72 C316.07 208.48 316.07 208.48 315.71 211.07 C314.7 213.81 313.07 215.64 311.19 217.88 C309.97 219.33 309.97 219.33 308.73 220.8 C307.82 221.87 306.91 222.94 306 224 C305.52 224.56 305.04 225.12 304.55 225.7 C302.51 228.07 300.48 230.44 298.44 232.81 C295.43 236.31 292.47 239.85 289.56 243.44 C285.46 248.49 281.21 253.4 276.94 258.31 C272.02 263.96 267.18 269.67 262.35 275.4 C260.97 277.04 259.58 278.68 258.19 280.31 C253.95 285.3 249.74 290.29 245.62 295.38 C241.46 300.5 237.14 305.48 232.8 310.45 C229.64 314.09 226.53 317.76 223.5 321.5 C219.38 326.59 215.1 331.52 210.8 336.45 C207.64 340.09 204.53 343.76 201.5 347.5 C197.38 352.59 193.1 357.52 188.8 362.45 C185.64 366.09 182.53 369.76 179.5 373.5 C175.38 378.59 171.1 383.52 166.8 388.45 C163.64 392.09 160.53 395.76 157.5 399.5 C153.38 404.59 149.1 409.52 144.8 414.45 C141.64 418.09 138.53 421.76 135.5 425.5 C131.92 429.92 128.23 434.22 124.5 438.5 C120.02 443.64 115.64 448.85 111.34 454.15 C108.43 457.69 105.47 461.2 102.5 464.69 C101.97 465.31 101.44 465.94 100.9 466.58 C99.62 468.07 98.31 469.54 97 471 C96.67 471 96.34 471 96 471 C96.39 464.8 97.42 459.02 98.94 453 C109.25 410.98 101.27 364.88 79 328 C75.93 323.13 72.56 318.52 69 314 C68.57 313.45 68.13 312.89 67.68 312.32 C53.49 294.43 36.18 281.51 16 271 C15.39 270.68 14.77 270.36 14.14 270.03 C-23.94 250.47 -68.17 248.53 -108.69 261.24 C-126.36 267.2 -143.48 276.28 -158 288 C-158.6 288.48 -159.19 288.96 -159.81 289.45 C-167.19 295.45 -173.92 301.66 -180 309 C-180.48 308.64 -180.95 308.28 -181.44 307.91 C-185.74 304.68 -190.06 301.48 -194.39 298.31 C-203.06 291.96 -211.63 285.49 -220.16 278.96 C-225.9 274.58 -231.68 270.27 -237.5 266 C-245.13 260.41 -252.66 254.71 -260.16 248.96 C-265.9 244.58 -271.68 240.26 -277.5 236 C-285.13 230.41 -292.66 224.71 -300.16 218.96 C-305.9 214.58 -311.68 210.26 -317.5 206 C-325.12 200.42 -332.65 194.71 -340.16 188.97 C-346.74 183.93 -353.4 179 -360.09 174.1 C-366.23 169.6 -372.28 165 -378.31 160.35 C-382.48 157.14 -386.7 154.03 -391 151 C-387.35 145.87 -383.5 141.36 -378.98 136.98 C-377.17 135.17 -375.52 133.32 -373.88 131.38 C-366.01 122.25 -357.21 113.76 -348 106 C-347.01 105.13 -346.02 104.27 -345 103.38 C-323.4 84.48 -299.97 68.14 -275 54 C-274.1 53.49 -273.2 52.97 -272.27 52.45 C-241.25 34.84 -208.31 21.68 -174 12 C-173.04 11.73 -172.09 11.46 -171.1 11.18 C-152.69 6.04 -133.9 2.78 -115 0 C-113.15 -0.27 -113.15 -0.27 -111.26 -0.55 C-75.06 -5.59 -36.15 -5.32 0 0 Z M-84 -2 C-84 -1.67 -84 -1.34 -84 -1 C-82.02 -1 -80.04 -1 -78 -1 C-78 -1.33 -78 -1.66 -78 -2 C-79.98 -2 -81.96 -2 -84 -2 Z M-37 -2 C-37 -1.67 -37 -1.34 -37 -1 C-35.02 -1 -33.04 -1 -31 -1 C-31 -1.33 -31 -1.66 -31 -2 C-32.98 -2 -34.96 -2 -37 -2 Z M102 386 C103 388 103 388 103 388 Z M103 392 C104 394 104 394 104 394 Z M104 401 C105 405 105 405 105 405 Z M104 426 C105 430 105 430 105 430 Z M103 437 C104 439 104 439 104 439 Z " fill="#3C85F3" transform="translate(539,35)"/>
<path d="M0 0 C0.68 0.1 1.36 0.2 2.06 0.3 C25.7 3.78 49.38 8.15 72 16 C67.88 24.59 60.54 31.58 54.09 38.52 C50.29 42.63 46.76 46.92 43.25 51.29 C40.12 55.07 36.79 58.64 33.46 62.25 C31.07 64.92 28.81 67.65 26.56 70.44 C22.9 74.97 19.05 79.26 15.09 83.52 C11.29 87.63 7.76 91.92 4.25 96.29 C1.12 100.07 -2.21 103.64 -5.54 107.25 C-7.93 109.92 -10.19 112.65 -12.44 115.44 C-16.1 119.97 -19.95 124.26 -23.91 128.52 C-27.71 132.63 -31.24 136.92 -34.75 141.29 C-37.88 145.07 -41.21 148.64 -44.54 152.25 C-46.93 154.92 -49.19 157.65 -51.44 160.44 C-55.1 164.97 -58.95 169.26 -62.91 173.52 C-66.71 177.63 -70.24 181.92 -73.75 186.29 C-76.88 190.07 -80.21 193.64 -83.54 197.25 C-85.93 199.92 -88.19 202.65 -90.44 205.44 C-94.1 209.97 -97.95 214.26 -101.91 218.52 C-105.71 222.63 -109.24 226.92 -112.75 231.29 C-115.88 235.07 -119.21 238.64 -122.54 242.25 C-124.93 244.92 -127.19 247.65 -129.44 250.44 C-133.1 254.97 -136.95 259.26 -140.91 263.52 C-144.71 267.63 -148.24 271.92 -151.75 276.28 C-154.12 279.15 -156.6 281.89 -159.12 284.62 C-162.71 288.52 -166 292.5 -169.2 296.72 C-172.58 301 -176.31 304.99 -180 309 C-180.48 308.64 -180.95 308.28 -181.44 307.91 C-185.74 304.68 -190.06 301.48 -194.39 298.31 C-203.06 291.96 -211.63 285.49 -220.16 278.96 C-225.9 274.58 -231.68 270.27 -237.5 266 C-245.13 260.41 -252.66 254.71 -260.16 248.96 C-265.9 244.58 -271.68 240.26 -277.5 236 C-285.13 230.41 -292.66 224.71 -300.16 218.96 C-305.9 214.58 -311.68 210.26 -317.5 206 C-325.12 200.42 -332.65 194.71 -340.16 188.97 C-346.74 183.93 -353.4 179 -360.09 174.1 C-366.23 169.6 -372.28 165 -378.31 160.35 C-382.48 157.14 -386.7 154.03 -391 151 C-387.35 145.87 -383.5 141.36 -378.98 136.98 C-377.17 135.17 -375.52 133.32 -373.88 131.38 C-366.01 122.25 -357.21 113.76 -348 106 C-347.01 105.13 -346.02 104.27 -345 103.38 C-323.4 84.48 -299.97 68.14 -275 54 C-274.1 53.49 -273.2 52.97 -272.27 52.45 C-241.25 34.84 -208.31 21.68 -174 12 C-173.04 11.73 -172.09 11.46 -171.1 11.18 C-152.69 6.04 -133.9 2.78 -115 0 C-113.15 -0.27 -113.15 -0.27 -111.26 -0.55 C-75.06 -5.59 -36.15 -5.32 0 0 Z M-84 -2 C-84 -1.67 -84 -1.34 -84 -1 C-82.02 -1 -80.04 -1 -78 -1 C-78 -1.33 -78 -1.66 -78 -2 C-79.98 -2 -81.96 -2 -84 -2 Z M-37 -2 C-37 -1.67 -37 -1.34 -37 -1 C-35.02 -1 -33.04 -1 -31 -1 C-31 -1.33 -31 -1.66 -31 -2 C-32.98 -2 -34.96 -2 -37 -2 Z " fill="#1973E8" transform="translate(539,35)"/>
<path d="M0 0 C5.54 2.98 10.34 6.45 15.25 10.38 C21.53 15.32 27.86 20.16 34.31 24.88 C41.1 29.84 47.82 34.89 54.5 40 C61.12 45.07 67.78 50.07 74.5 55 C82.13 60.59 89.66 66.29 97.16 72.04 C102.9 76.42 108.68 80.74 114.5 85 C122.13 90.59 129.66 96.29 137.16 102.04 C142.9 106.42 148.68 110.74 154.5 115 C162.12 120.58 169.64 126.27 177.13 132.01 C183.97 137.25 190.89 142.36 197.87 147.4 C201.92 150.34 205.73 153.2 209 157 C209 161.51 206.43 163.97 203.81 167.5 C203.33 168.18 202.85 168.85 202.35 169.55 C199.56 173.35 197.21 175.73 193 178 C191.61 179.49 191.61 179.49 190.5 181.25 C187.47 185.5 184.12 189.39 180.69 193.31 C176.11 198.55 171.62 203.85 167.24 209.26 C164.7 212.37 162.1 215.44 159.5 218.5 C156.13 222.47 152.79 226.46 149.5 230.5 C145.75 235.1 141.93 239.64 138.09 244.16 C135.19 247.58 132.33 251.03 129.5 254.5 C126.21 258.54 122.87 262.53 119.5 266.5 C115.45 271.27 111.46 276.08 107.5 280.93 C99.69 290.51 91.84 300.05 83.83 309.47 C80.27 313.66 76.79 317.92 73.31 322.19 C70.28 325.88 67.18 329.52 64.09 333.16 C61.19 336.58 58.33 340.03 55.5 343.5 C51.75 348.1 47.93 352.64 44.09 357.16 C41.19 360.58 38.33 364.03 35.5 367.5 C32.21 371.54 28.87 375.53 25.5 379.5 C21.45 384.27 17.46 389.08 13.5 393.93 C5.69 403.51 -2.16 413.05 -10.17 422.47 C-13.72 426.66 -17.2 430.91 -20.67 435.17 C-24.21 439.47 -27.82 443.71 -31.42 447.96 C-33.96 450.96 -36.49 453.98 -39 457 C-42.53 453.84 -44.69 450.33 -46.86 446.17 C-47.22 445.51 -47.57 444.84 -47.94 444.15 C-48.69 442.74 -49.44 441.32 -50.18 439.91 C-51.29 437.79 -52.41 435.69 -53.54 433.59 C-62.2 417.26 -70.36 399.97 -75.35 382.14 C-75.97 380.09 -76.74 378.2 -77.62 376.25 C-78.97 373.07 -79.45 370.39 -80 367 C-80.44 365.87 -80.89 364.73 -81.35 363.57 C-83.42 358.13 -84.68 352.55 -85.94 346.88 C-86.33 345.13 -86.33 345.13 -86.72 343.35 C-91.34 321.77 -94.08 299.59 -94.24 277.52 C-94.25 276.36 -94.26 275.2 -94.27 274.01 C-94.44 249.05 -94.43 224.62 -90 200 C-89.68 198.17 -89.68 198.17 -89.35 196.31 C-79.28 140.55 -58.59 85.81 -28 38 C-27.63 37.42 -27.26 36.83 -26.87 36.23 C-24.65 32.77 -22.35 29.37 -20 26 C-19.62 25.45 -19.23 24.89 -18.84 24.32 C-6.32 6.32 -6.32 6.32 0 0 Z M-89 200 C-88 202 -88 202 -88 202 Z M-91 214 C-90 216 -90 216 -90 216 Z M-92 222 C-91 225 -91 225 -91 225 Z M-93 233 C-92 237 -92 237 -92 237 Z M-93 285 C-93 286.65 -93 288.3 -93 290 C-92.67 290 -92.34 290 -92 290 C-92 288.35 -92 286.7 -92 285 C-92.33 285 -92.66 285 -93 285 Z M-92 299 C-91 302 -91 302 -91 302 Z M-91 309 C-90 311 -90 311 -90 311 Z M-90 317 C-89 319 -89 319 -89 319 Z M-89 324 C-88 326 -88 326 -88 326 Z " fill="#E74334" transform="translate(148,186)"/>
<path d="M0 0 C0.33 0 0.66 0 1 0 C1 5.28 1 10.56 1 16 C0.67 16 0.34 16 0 16 C0 10.72 0 5.44 0 0 Z " fill="#E74335" transform="translate(53,437)"/>
</svg>
