<svg width="23" height="24" viewBox="0 0 23 24" fill="none" xmlns="http://www.w3.org/2000/svg">
<path d="M6.06194 4.44513V6.31033" stroke="#1B1B1B" stroke-width="1.67868" stroke-linecap="round" stroke-linejoin="round"/>
<path d="M6.99454 5.37771H5.12933" stroke="#1B1B1B" stroke-width="1.67868" stroke-linecap="round" stroke-linejoin="round"/>
<path fill-rule="evenodd" clip-rule="evenodd" d="M15.7629 13.1155C15.2826 13.1155 14.8303 13.2144 14.4348 13.4121C14.1383 11.4601 12.4428 9.96051 10.4079 9.96051C8.18919 9.96051 6.38088 11.7427 6.32399 13.9492C4.99597 14.119 3.96451 15.2502 3.96451 16.651C3.96358 18.1506 5.17876 19.3667 6.67651 19.3667H15.7619C17.4854 19.3667 18.8843 17.9669 18.8843 16.2407C18.8852 14.5153 17.4863 13.1155 15.7629 13.1155V13.1155Z" stroke="#1B1B1B" stroke-width="1.67868" stroke-linecap="round" stroke-linejoin="round"/>
<path d="M11.2379 10.0538C11.4729 7.96103 13.2299 6.32898 15.3879 6.32898C15.3879 8.6437 17.2671 10.5201 19.5846 10.5201C19.5846 11.9218 18.8889 13.1556 17.8304 13.9157" stroke="#1B1B1B" stroke-width="1.67868" stroke-linecap="round" stroke-linejoin="round"/>
<path d="M3.73042 10.0314H2.79782" stroke="#1B1B1B" stroke-width="1.67868" stroke-linecap="round" stroke-linejoin="round"/>
<path d="M3.26412 9.56509V10.4977" stroke="#1B1B1B" stroke-width="1.67868" stroke-linecap="round" stroke-linejoin="round"/>
</svg>
