<svg fill="none" height="512" viewBox="0 0 512 512" width="512" xmlns="http://www.w3.org/2000/svg">
    <g clip-path="url(#clip0_202_803)">
        <rect fill="#F8F7F6" height="512" width="512" />
        <rect fill="#D1CABD" fill-opacity="0.2" height="713.922" transform="rotate(60 501.655 -80.6094)"
            width="356.224" x="501.655" y="-80.6094" />
        <path
            d="M252.853 389.424C206.965 320.591 123.928 281.796 66.0205 269.778V237C180.742 286.167 226.631 312.778 252.853 339C292.187 302.945 389.415 266.5 454.97 237V277.094C373.026 300.038 281.853 343.087 252.853 389.424Z"
            fill="url(#paint0_linear_202_803)" />
        <path
            d="M27 299.043V266.266C165.977 289.866 235.685 359.136 253.166 390.821C282.011 335.754 420.332 290.937 485.888 272.363V299.043C401.977 299.043 295.777 381.389 253.166 424C211.211 350.578 84.9073 311.062 27 299.043Z"
            fill="url(#paint1_linear_202_803)" />
        <path
            d="M234.926 100.94L232.279 101.649C220.695 104.753 209.835 110.108 200.32 117.409C190.805 124.71 182.822 133.814 176.825 144.2C164.715 165.177 161.433 190.105 167.702 213.501C173.971 236.896 189.277 256.844 210.253 268.954C220.639 274.951 232.105 278.843 243.996 280.409C255.886 281.974 267.969 281.182 279.553 278.078C306.018 270.987 318.65 258.147 330.983 240.66C286.011 266.893 232.449 243.426 220.63 199.318C208.812 155.211 243.464 108.107 295.528 108.339C286.439 103.103 276.39 99.7497 265.979 98.4786C255.568 97.2076 245.007 98.0446 234.926 100.94ZM284.55 127.353L279.591 161.774L247.66 173.166L279.152 188.365L279.485 221.367L302.987 196.161L335.943 206.24L318.848 177.728L339.403 148.584L306.055 154.683L284.55 127.353Z"
            fill="url(#paint2_linear_202_803)" />
    </g>
    <defs>
        <linearGradient gradientUnits="userSpaceOnUse" id="paint0_linear_202_803" x1="111.909" x2="442.964"
            y1="282.889" y2="240.278">
            <stop stop-color="#9A8F7C" stop-opacity="0.83" />
            <stop offset="1" stop-color="#B6996D" stop-opacity="0.99" />
        </linearGradient>
        <linearGradient gradientUnits="userSpaceOnUse" id="paint1_linear_202_803" x1="56.4999" x2="472.777"
            y1="299.043" y2="308.877">
            <stop stop-color="#054B54" />
            <stop offset="1" stop-color="#1D7985" stop-opacity="0.56" />
        </linearGradient>
        <linearGradient gradientUnits="userSpaceOnUse" id="paint2_linear_202_803" x1="111.224" x2="441.893" y1="102.44"
            y2="231.5">
            <stop stop-color="#435456" />
            <stop offset="1" stop-color="#207884" stop-opacity="0.71" />
        </linearGradient>
        <clipPath id="clip0_202_803">
            <rect fill="white" height="512" width="512" />
        </clipPath>
    </defs>
</svg>
