<svg width="195" height="202" viewBox="0 0 195 202" fill="none" xmlns="http://www.w3.org/2000/svg">
<path d="M97.499 25.001L120.449 139.001H74.5494L97.499 25.001Z" fill="#8DBAC0"/>
<path d="M97.6686 124.859L73.835 122.377V146.707L97.6686 151.176L120.509 146.21V121.88L97.6686 124.859Z" fill="#3D3D3D"/>
<path d="M97.6686 150.679L73.835 146.21V152.665L97.6686 157.133L120.509 152.665V146.21L97.6686 150.679Z" fill="#F5F5F5"/>
<path d="M97.6666 157.134L73.833 152.665V160.61L97.6666 165.575L120.507 160.61V152.665L97.6666 157.134Z" fill="#D6A67E"/>
<path d="M120.507 155.644L118.521 156.032M73.833 155.644L75.3226 155.923M73.833 158.126L75.3226 158.437M120.507 158.126L115.045 159.314M97.6666 157.133V165.574M79.2949 153.657V156.637M85.2533 155.147V157.785M85.2533 157.785L81.281 157.04M85.2533 157.785L87.2394 158.157M91.7082 156.14V158.995M91.7082 158.995L87.2394 158.157M91.7082 158.995L93.4534 159.322M75.3226 155.923V158.437M75.3226 155.923L81.281 157.04M75.3226 158.437L79.2949 159.264M81.281 157.04V159.678M81.281 159.678L79.2949 159.264M81.281 159.678L85.2533 160.505M87.2394 158.157V160.919M87.2394 160.919L85.2533 160.505M87.2394 160.919L91.5133 161.81M93.4534 159.322L97.6666 160.112L101.704 159.322M93.4534 159.322V162.214M93.4534 162.214L97.6666 163.092L103.625 161.796M93.4534 162.214L91.5133 161.81M79.2949 159.264V161.602M85.2533 160.505V163.092M91.5133 161.81V164.376M101.704 159.322V162.099M101.704 159.322L103.625 158.947M107.818 158.126V160.885M107.818 158.126L109.583 157.781M107.818 158.126L103.625 158.947M107.818 160.885L103.625 161.796M107.818 160.885L109.583 160.501M113.059 157.101V159.745M113.059 157.101L115.045 156.712M113.059 157.101L109.583 157.781M113.059 159.745L109.583 160.501M113.059 159.745L115.045 159.314M118.521 156.032V158.623M118.521 156.032L115.045 156.712M115.045 154.154V156.712M109.583 155.147V157.781M103.625 156.032V158.947M103.625 161.796V164.085M109.583 160.501V163.092M115.045 159.314V161.796" stroke="#B1713C" stroke-width="0.2" stroke-linejoin="bevel"/>
<path d="M97.6676 133.797L73.834 130.321V132.307L97.6676 135.783L120.508 131.811V129.824L97.6676 133.797Z" fill="#D39827"/>
<path d="M73.834 129.334V129.831L97.565 133.292V132.795L73.834 129.334Z" fill="#D39827"/>
<path d="M120.538 129.407V128.911L97.5391 132.791V133.294L120.538 129.407Z" fill="#E2A736"/>
<path d="M73.834 132.711V133.208L97.565 136.668V136.172L73.834 132.711Z" fill="#D39827"/>
<path d="M120.538 132.784V132.287L97.5391 136.167V136.67L120.538 132.784Z" fill="#E2A736"/>
<path d="M97.5025 124.995L73.8633 122.408C73.8633 122.408 73.9711 121.69 74.7255 121.582C75.48 121.474 88.6075 119.852 97.5025 118.744C106.159 119.628 119.094 120.931 119.669 121.007C120.244 121.084 120.459 121.941 120.459 121.941L97.5025 124.995Z" fill="#B1B1B1"/>
<path d="M97.5025 124.995L73.8633 122.408C73.8633 122.408 73.9711 121.69 74.7255 121.582C75.48 121.474 88.6075 119.852 97.5025 118.744C106.159 119.628 119.094 120.931 119.669 121.007C120.244 121.084 120.459 121.941 120.459 121.941L97.5025 124.995Z" fill="#B1B1B1"/>
<path d="M78.5665 135.703L83.0917 136.334V138.649L78.5665 138.018V135.703Z" fill="#CE9322"/>
<path d="M86.1436 136.755L91.5107 137.492V140.018L86.1436 139.176V136.755Z" fill="#CE9322"/>
<path d="M94.8783 138.018L97.5093 138.334V141.07L94.8783 140.649V138.018Z" fill="#CE9322"/>
<path d="M92.1421 138.965L93.1945 137.808L94.1416 138.965L93.1945 140.123L92.1421 138.965Z" fill="#CE9322"/>
<path d="M83.8284 137.702L84.5651 136.86L85.3017 137.702L84.5651 138.649L83.8284 137.702Z" fill="#CE9322"/>
<path d="M76.6722 136.65L77.3037 135.913L77.9351 136.65L77.3037 137.387L76.6722 136.65Z" fill="#CE9322"/>
<path d="M73.9727 135.018L76.1282 135.305V137.604L73.9727 137.245V135.018Z" fill="#CE9322"/>
<path d="M116.136 135.071L111.481 135.895L111.506 138.334L116.136 137.386V135.071Z" fill="#EBB44A"/>
<path d="M108.348 136.526L103.077 137.365V139.912L108.454 138.86L108.348 136.526Z" fill="#EBB44A"/>
<path d="M99.719 138.018L97.509 138.334V141.07L99.719 140.649V138.018Z" fill="#EBB44A"/>
<path d="M102.455 138.965L101.422 137.648L100.491 138.965L101.422 140.282L102.455 138.965Z" fill="#EBB44A"/>
<path d="M110.769 137.343L110.045 136.385L109.19 137.343L110.045 138.421L110.769 137.343Z" fill="#EBB44A"/>
<path d="M117.914 135.909L117.294 135.071L116.674 135.909L117.294 136.748L117.914 135.909Z" fill="#EBB44A"/>
<path d="M120.346 134.334L118.451 134.65V136.965L120.346 136.544V134.334Z" fill="#EBB44A"/>
<path d="M97.429 119.534L77.8135 121.977L97.429 123.845L115.5 121.366L97.429 119.534Z" fill="#848484"/>
<path d="M97.4315 120.792L83.6719 122.552L97.4315 123.809L110.221 122.085L97.4315 120.792Z" fill="#9D9D9D"/>
</svg>
