<svg width="42" height="43" viewBox="0 0 42 43" fill="none" xmlns="http://www.w3.org/2000/svg">
<path d="M36.2578 15.2255V7.47266C36.2578 6.79311 35.7069 6.24219 35.0273 6.24219H27.2745L21.8682 0.858559C21.388 0.38048 20.6118 0.38048 20.1317 0.858559L14.7255 6.24219H6.97266C6.29311 6.24219 5.74219 6.79311 5.74219 7.47266V15.2255L0.358559 20.6318C-0.11952 21.1119 -0.11952 21.8882 0.358559 22.3683L5.74219 27.7745V35.5273C5.74219 36.2069 6.29311 36.7578 6.97266 36.7578H14.7255L20.1317 42.1414C20.3718 42.3805 20.6859 42.5 21 42.5C21.3141 42.5 21.6282 42.3805 21.8682 42.1414L27.2745 36.7578H35.0273C35.7069 36.7578 36.2578 36.2069 36.2578 35.5273V27.7745L41.6414 22.3683C42.1195 21.8882 42.1195 21.1119 41.6414 20.6318L36.2578 15.2255ZM34.1554 26.398C33.9258 26.6287 33.7969 26.9408 33.7969 27.2662V34.2969H26.7663C26.4409 34.2969 26.1287 34.4258 25.8981 34.6554L21 39.533L16.102 34.6554C15.8713 34.4258 15.5592 34.2969 15.2338 34.2969H8.20312V27.2663C8.20312 26.9409 8.07417 26.6287 7.84457 26.3981L2.96699 21.5L7.84457 16.602C8.07417 16.3713 8.20312 16.0592 8.20312 15.7338V8.70312H15.2337C15.5591 8.70312 15.8713 8.57417 16.1019 8.34457L21 3.46699L25.8981 8.34457C26.1288 8.57417 26.4409 8.70312 26.7663 8.70312H33.7969V15.7337C33.7969 16.0591 33.9258 16.3713 34.1554 16.6019L39.033 21.5L34.1554 26.398Z" fill="#82D3E2"/>
</svg>
