<svg width="23" height="23" viewBox="0 0 23 23" fill="none" xmlns="http://www.w3.org/2000/svg">
<path d="M15.7115 14.0335C16.3886 12.9564 16.7868 11.6852 16.7868 10.319C16.7868 6.45614 13.6561 3.32446 9.7923 3.32446C5.92853 3.32446 2.79779 6.45614 2.79779 10.319C2.79779 12.4807 3.77982 14.4131 5.32048 15.6954" stroke="#1B1B1B" stroke-width="1.67868" stroke-linecap="round" stroke-linejoin="round"/>
<path fill-rule="evenodd" clip-rule="evenodd" d="M16.4613 13.9402C15.9811 13.9402 15.5287 14.0391 15.1333 14.2368C14.8367 12.2849 13.1413 10.7852 11.1063 10.7852C8.88768 10.7852 7.07937 12.5674 7.02248 14.774C5.69445 14.9437 4.66299 16.075 4.66299 17.4757C4.66206 18.9754 5.87724 20.1915 7.375 20.1915H16.4604C18.1839 20.1915 19.5828 18.7916 19.5828 17.0654C19.5837 15.3401 18.1848 13.9402 16.4613 13.9402V13.9402Z" stroke="#1B1B1B" stroke-width="1.67868" stroke-linecap="round" stroke-linejoin="round"/>
</svg>
